<?xml version="1.0" encoding="utf-8"?>
<!-- Generator: Adobe Illustrator 19.1.0, SVG Export Plug-In . SVG Version: 6.00 Build 0)  -->
<svg version="1.1" id="Layer_1" xmlns="http://www.w3.org/2000/svg" xmlns:xlink="http://www.w3.org/1999/xlink" x="0px" y="0px"
	 viewBox="0 0 200 38" style="enable-background:new 0 0 200 38;" xml:space="preserve">
<style type="text/css">
	.st0{fill:#027953;}
	.st1{fill:#FFFFFF;}
</style>
<rect x="0" y="28.3" class="st0" width="198.8" height="9.7"/>
<g>
	<path class="st1" d="M45.3,29.7h3.1c0.9,0,1.5,0.3,2,0.7c0.4,0.4,0.6,0.9,0.6,1.5v0c0,1.1-0.7,1.8-1.6,2l1.9,2.6h-1.4L48.1,34h-1.5
		v2.3h-1.2V29.7z M48.3,33c0.9,0,1.4-0.4,1.4-1.1v0c0-0.7-0.5-1.1-1.4-1.1h-1.8V33H48.3z"/>
	<path class="st1" d="M52.4,29.7h5.1v1.1h-3.9v1.8h3.4v1.1h-3.4v1.8h3.9v1.1h-5.1V29.7z"/>
	<path class="st1" d="M58.6,35.4l0.7-0.8c0.7,0.6,1.3,0.9,2.2,0.9c0.7,0,1.2-0.3,1.2-0.8v0c0-0.5-0.3-0.7-1.6-1
		c-1.5-0.3-2.3-0.8-2.3-2v0c0-1.2,1-2,2.3-2c1,0,1.8,0.3,2.5,0.8L63,31.3c-0.6-0.5-1.2-0.7-1.9-0.7c-0.7,0-1.1,0.4-1.1,0.8v0
		c0,0.5,0.3,0.8,1.6,1.1c1.5,0.3,2.2,0.9,2.2,2v0c0,1.3-1,2-2.5,2C60.4,36.5,59.4,36.1,58.6,35.4z"/>
	<path class="st1" d="M65.3,29.7h5.1v1.1h-3.9v1.8H70v1.1h-3.4v1.8h3.9v1.1h-5.1V29.7z"/>
	<path class="st1" d="M74.3,29.6h1.1l3,6.8h-1.3l-0.7-1.6h-3.3l-0.7,1.6h-1.2L74.3,29.6z M76.1,33.7L74.9,31l-1.2,2.7H76.1z"/>
	<path class="st1" d="M79.6,29.7h3.1c0.9,0,1.5,0.3,2,0.7c0.4,0.4,0.6,0.9,0.6,1.5v0c0,1.1-0.7,1.8-1.6,2l1.9,2.6h-1.4L82.4,34h-1.5
		v2.3h-1.2V29.7z M82.6,33c0.9,0,1.4-0.4,1.4-1.1v0c0-0.7-0.5-1.1-1.4-1.1h-1.8V33H82.6z"/>
	<path class="st1" d="M86.4,33L86.4,33c0-1.9,1.5-3.5,3.5-3.5c1.3,0,2,0.4,2.7,1l-0.8,0.9c-0.5-0.5-1.1-0.8-1.9-0.8
		c-1.3,0-2.3,1.1-2.3,2.4v0c0,1.3,1,2.4,2.3,2.4c0.8,0,1.4-0.3,2-0.9l0.8,0.8c-0.7,0.7-1.5,1.2-2.8,1.2C87.9,36.5,86.4,35,86.4,33z"
		/>
	<path class="st1" d="M94,29.7h1.2v2.8h3.3v-2.8h1.2v6.7h-1.2v-2.8h-3.3v2.8H94V29.7z"/>
	<path class="st1" d="M104.4,29.7h1.2v2.8h3.3v-2.8h1.2v6.7h-1.2v-2.8h-3.3v2.8h-1.2V29.7z"/>
	<path class="st1" d="M111.6,33L111.6,33c0-1.9,1.5-3.5,3.6-3.5c2.1,0,3.6,1.6,3.6,3.5v0c0,1.9-1.5,3.5-3.6,3.5
		C113,36.5,111.6,34.9,111.6,33z M117.5,33L117.5,33c0-1.3-1-2.4-2.3-2.4c-1.4,0-2.3,1.1-2.3,2.4v0c0,1.3,1,2.4,2.3,2.4
		C116.5,35.4,117.5,34.3,117.5,33z"/>
	<path class="st1" d="M119.7,35.4l0.7-0.8c0.7,0.6,1.3,0.9,2.2,0.9c0.7,0,1.2-0.3,1.2-0.8v0c0-0.5-0.3-0.7-1.6-1
		c-1.5-0.3-2.3-0.8-2.3-2v0c0-1.2,1-2,2.3-2c1,0,1.8,0.3,2.5,0.8l-0.6,0.9c-0.6-0.5-1.2-0.7-1.9-0.7c-0.7,0-1.1,0.4-1.1,0.8v0
		c0,0.5,0.3,0.8,1.6,1.1c1.5,0.3,2.2,0.9,2.2,2v0c0,1.3-1,2-2.5,2C121.5,36.5,120.5,36.1,119.7,35.4z"/>
	<path class="st1" d="M126.4,29.7h2.7c1.6,0,2.6,0.9,2.6,2.3v0c0,1.5-1.2,2.3-2.8,2.3h-1.4v2.2h-1.2V29.7z M129.1,33.2
		c0.9,0,1.5-0.5,1.5-1.2v0c0-0.8-0.6-1.2-1.5-1.2h-1.4v2.4H129.1z"/>
	<path class="st1" d="M133.1,29.7h1.2v6.7h-1.2V29.7z"/>
	<path class="st1" d="M137.8,30.7h-2.2v-1.1h5.6v1.1H139v5.6h-1.2V30.7z"/>
	<path class="st1" d="M144,29.6h1.1l3,6.8h-1.3l-0.7-1.6H143l-0.7,1.6H141L144,29.6z M145.8,33.7l-1.2-2.7l-1.2,2.7H145.8z"/>
	<path class="st1" d="M149.4,29.7h1.2v5.7h3.6v1.1h-4.8V29.7z"/>
</g>
<g>
	<g>
		<path class="st0" d="M9.2,12.8v7.3c0,1.2,0.1,2,0.2,2.3c0.1,0.3,0.4,0.6,0.8,0.8c0.4,0.2,0.9,0.3,1.6,0.3h0.8v0.6H0v-0.6h0.8
			c0.7,0,1.3-0.1,1.7-0.4c0.3-0.2,0.5-0.4,0.7-0.8c0.1-0.3,0.2-1,0.2-2.2V4.6c0-1.2-0.1-2-0.2-2.3C3.1,2,2.8,1.8,2.4,1.5
			C2,1.3,1.5,1.2,0.8,1.2H0V0.5h12.6v0.6h-0.8c-0.7,0-1.3,0.1-1.7,0.4C9.8,1.7,9.5,2,9.4,2.4c-0.1,0.3-0.2,1-0.2,2.2v6.7h8.5V4.6
			c0-1.2-0.1-2-0.2-2.3c-0.1-0.3-0.4-0.6-0.8-0.8c-0.4-0.2-0.9-0.3-1.6-0.3h-0.8V0.5h12.5v0.6H26c-0.7,0-1.3,0.1-1.7,0.4
			C24,1.7,23.8,2,23.6,2.4c-0.1,0.3-0.2,1-0.2,2.2v15.5c0,1.2,0.1,2,0.2,2.3c0.1,0.3,0.4,0.6,0.8,0.8c0.4,0.2,0.9,0.3,1.6,0.3h0.8
			v0.6H14.3v-0.6H15c0.7,0,1.3-0.1,1.7-0.4c0.3-0.2,0.6-0.4,0.7-0.8c0.1-0.3,0.2-1,0.2-2.2v-7.3H9.2z"/>
	</g>
	<g>
		<path class="st0" d="M26.2,0.5h12.4v0.6H38c-0.9,0-1.6,0.1-1.9,0.3c-0.3,0.2-0.6,0.5-0.7,0.8c-0.1,0.3-0.2,1.2-0.2,2.5v11.5
			c0,2.1,0.2,3.5,0.5,4.2c0.3,0.7,0.9,1.2,1.6,1.7c0.7,0.5,1.7,0.7,2.8,0.7c1.3,0,2.4-0.3,3.3-0.9c0.9-0.6,1.6-1.4,2.1-2.4
			c0.5-1,0.7-2.8,0.7-5.3V4.8c0-1.1-0.1-1.8-0.3-2.3c-0.2-0.5-0.5-0.8-0.8-0.9c-0.5-0.3-1.3-0.4-2.3-0.4V0.5H51v0.6h-0.5
			c-0.7,0-1.2,0.1-1.7,0.4c-0.4,0.3-0.8,0.7-1,1.2c-0.2,0.4-0.2,1-0.2,2v8.9c0,2.8-0.2,4.8-0.6,6c-0.4,1.2-1.3,2.4-2.7,3.4
			c-1.4,1-3.4,1.5-5.9,1.5c-2.1,0-3.7-0.3-4.8-0.8c-1.5-0.7-2.6-1.7-3.3-2.8c-0.6-1.2-1-2.7-1-4.7V4.8c0-1.4-0.1-2.2-0.2-2.5
			c-0.2-0.3-0.4-0.6-0.8-0.8c-0.4-0.2-1.1-0.3-2.1-0.3V0.5z"/>
	</g>
	<g>
		<path class="st0" d="M67.3,16.1l6.5-15.5h9.8v0.6h-0.8c-0.7,0-1.3,0.1-1.7,0.4c-0.3,0.2-0.5,0.4-0.7,0.8c-0.1,0.3-0.2,1-0.2,2.2
			v15.5c0,1.2,0.1,2,0.2,2.3c0.1,0.3,0.4,0.6,0.8,0.8c0.4,0.2,0.9,0.3,1.6,0.3h0.8v0.6H71.1v-0.6h0.8c0.7,0,1.3-0.1,1.7-0.4
			c0.3-0.2,0.5-0.4,0.7-0.8c0.1-0.3,0.2-1,0.2-2.2V2.6l-9.2,21.5h-0.4L55.5,2.8v16.6c0,1.2,0,1.9,0.1,2.1c0.2,0.6,0.5,1.1,1,1.4
			c0.5,0.4,1.3,0.5,2.4,0.5v0.6h-8.2v-0.6H51c0.5,0,1-0.1,1.5-0.3c0.5-0.2,0.8-0.4,1-0.7c0.2-0.3,0.4-0.7,0.5-1.3c0-0.1,0-0.7,0-1.8
			V4.5c0-1.2-0.1-1.9-0.2-2.2c-0.1-0.3-0.4-0.6-0.8-0.8c-0.4-0.2-0.9-0.3-1.6-0.3h-0.8V0.5h9.8L67.3,16.1z"/>
	</g>
	<g>
		<path class="st0" d="M95.8,17.4h-8.5l-1,2.3c-0.3,0.8-0.5,1.4-0.5,1.9c0,0.7,0.3,1.1,0.8,1.5c0.3,0.2,1.1,0.3,2.4,0.4v0.6h-8v-0.6
			c0.9-0.1,1.6-0.5,2.1-1c0.6-0.6,1.2-1.8,2.1-3.6l8.6-18.8h0.3l8.7,19.3c0.8,1.8,1.5,3,2,3.5c0.4,0.4,1,0.6,1.7,0.6v0.6H94.9v-0.6
			h0.5c0.9,0,1.6-0.1,2-0.4c0.3-0.2,0.4-0.5,0.4-0.8c0-0.2,0-0.4-0.1-0.6c0-0.1-0.2-0.5-0.5-1.3L95.8,17.4z M95.2,16.1L91.7,8
			L88,16.1H95.2z"/>
	</g>
	<g>
		<path class="st0" d="M112.4,0.5l11.9,14.6V5c0-1.4-0.2-2.4-0.6-2.9c-0.6-0.7-1.5-1-2.9-1V0.5h7.9v0.6c-1,0.1-1.7,0.3-2,0.5
			c-0.3,0.2-0.6,0.5-0.8,1c-0.2,0.5-0.3,1.2-0.3,2.4v19.6H125L108.8,5v15c0,1.4,0.3,2.3,0.9,2.7c0.6,0.5,1.4,0.7,2.2,0.7h0.6v0.6
			h-8.5v-0.6c1.3,0,2.2-0.3,2.8-0.8c0.5-0.5,0.8-1.4,0.8-2.7V3.4l-0.5-0.6c-0.5-0.6-1-1-1.3-1.2c-0.4-0.2-1-0.3-1.7-0.3V0.5H112.4z"
			/>
	</g>
	<g>
		<path class="st0" d="M141.3,23.5v0.6h-12.6v-0.6h0.8c0.7,0,1.3-0.1,1.7-0.4c0.3-0.2,0.5-0.4,0.7-0.8c0.1-0.3,0.2-1,0.2-2.2V4.6
			c0-1.2-0.1-2-0.2-2.3c-0.1-0.3-0.4-0.6-0.8-0.8c-0.4-0.2-0.9-0.3-1.6-0.3h-0.8V0.5h12.6v0.6h-0.8c-0.7,0-1.3,0.1-1.7,0.4
			c-0.3,0.2-0.5,0.4-0.7,0.8c-0.1,0.3-0.2,1-0.2,2.2v15.5c0,1.2,0.1,2,0.2,2.3c0.1,0.3,0.4,0.6,0.8,0.8c0.4,0.2,0.9,0.3,1.6,0.3
			H141.3z"/>
	</g>
	<g>
		<path class="st0" d="M163.4,0.5v6.4h-0.6c-0.4-1.5-0.8-2.5-1.3-3.2c-0.5-0.6-1.1-1.2-1.9-1.5c-0.4-0.2-1.2-0.3-2.4-0.3h-1.8v18.2
			c0,1.2,0.1,2,0.2,2.3c0.1,0.3,0.4,0.6,0.8,0.8c0.4,0.2,0.9,0.3,1.6,0.3h0.8v0.6h-12.6v-0.6h0.8c0.7,0,1.3-0.1,1.7-0.4
			c0.3-0.2,0.6-0.4,0.7-0.8c0.1-0.3,0.2-1,0.2-2.2V1.9H148c-1.6,0-2.8,0.3-3.5,1c-1,0.9-1.7,2.3-2,4h-0.7V0.5H163.4z"/>
	</g>
	<g>
		<path class="st0" d="M173.6,17.4h-8.5l-1,2.3c-0.3,0.8-0.5,1.4-0.5,1.9c0,0.7,0.3,1.1,0.8,1.5c0.3,0.2,1.1,0.3,2.4,0.4v0.6h-8
			v-0.6c0.9-0.1,1.6-0.5,2.1-1c0.6-0.6,1.2-1.8,2.1-3.6l8.6-18.8h0.3l8.7,19.3c0.8,1.8,1.5,3,2,3.5c0.4,0.4,1,0.6,1.7,0.6v0.6h-11.6
			v-0.6h0.5c0.9,0,1.6-0.1,2-0.4c0.3-0.2,0.4-0.5,0.4-0.8c0-0.2,0-0.4-0.1-0.6c0-0.1-0.2-0.5-0.5-1.3L173.6,17.4z M173,16.1L169.4,8
			l-3.7,8.1H173z"/>
	</g>
	<g>
		<path class="st0" d="M198.4,0l0.2,7.7h-0.7c-0.3-1.9-1.2-3.5-2.5-4.7c-1.3-1.2-2.7-1.8-4.3-1.8c-1.2,0-2.1,0.3-2.8,0.9
			c-0.7,0.6-1,1.3-1,2.1c0,0.5,0.1,1,0.4,1.4c0.3,0.5,0.9,1.1,1.6,1.6c0.5,0.4,1.8,1,3.8,2c2.8,1.3,4.6,2.6,5.6,3.8
			c0.9,1.2,1.4,2.5,1.4,4c0,1.9-0.8,3.6-2.3,5c-1.5,1.4-3.5,2.1-5.8,2.1c-0.7,0-1.4-0.1-2.1-0.2c-0.7-0.1-1.5-0.4-2.5-0.8
			c-0.6-0.2-1-0.3-1.4-0.3c-0.3,0-0.6,0.1-1,0.3c-0.3,0.2-0.6,0.6-0.8,1h-0.6v-8.7h0.6c0.5,2.5,1.5,4.3,2.9,5.6
			c1.5,1.3,3,1.9,4.7,1.9c1.3,0,2.3-0.3,3.1-1c0.8-0.7,1.2-1.5,1.2-2.4c0-0.5-0.1-1.1-0.4-1.6c-0.3-0.5-0.7-1-1.3-1.5
			c-0.6-0.5-1.7-1.1-3.2-1.8c-2.1-1-3.7-1.9-4.6-2.6c-0.9-0.7-1.7-1.5-2.2-2.4c-0.5-0.9-0.8-1.9-0.8-3c0-1.8,0.7-3.4,2.1-4.7
			c1.4-1.3,3.1-1.9,5.2-1.9c0.8,0,1.5,0.1,2.2,0.3c0.5,0.1,1.2,0.4,2,0.8c0.8,0.4,1.3,0.6,1.6,0.6c0.3,0,0.5-0.1,0.7-0.3
			c0.2-0.2,0.3-0.6,0.5-1.3H198.4z"/>
	</g>
</g>
</svg>
